# xmcd CD database file
#
# Track frame offsets:
#	187
#	59777
#	84429
#	116484
#
# Disc length: 2273 seconds
#
# Revision: 0
# Processed by: cddbd v1.5.2PL0 Copyright (c) Steve Scherf et al.
# Submitted via: CDex 1.70beta1
#
DISCID=3008df04
DTITLE=Hideo Ichikawa Trio - Tomorrow
DYEAR=1900
DGENRE=Jazz
TTITLE0="234" - Out of the Boundless Verdant Land-
TTITLE1=Between the Lights
TTITLE2=Birds, My Birds - Rest your wings, Fly away in the Blue Sky again-
TTITLE3=Tomorrow
EXTD=
EXTT0=
EXTT1=
EXTT2=
EXTT3=
PLAYORDER=
